STARTFONT 2.1
FONT -dylex-crawl-Medium-R-Normal--14-140-75-75-C-140-ISO10646-1
SIZE 14 75 75
FONTBOUNDINGBOX 14 14 0 -3
STARTPROPERTIES 23
FONTNAME_REGISTRY ""
FOUNDRY "dylex"
FAMILY_NAME "crawl"
WEIGHT_NAME "Medium"
SLANT "R"
SETWIDTH_NAME "Normal"
ADD_STYLE_NAME ""
PIXEL_SIZE 14
POINT_SIZE 140
RESOLUTION_X 75
RESOLUTION_Y 75
SPACING "C"
AVERAGE_WIDTH 140
CHARSET_REGISTRY "ISO10646"
CHARSET_ENCODING "1"
COPYRIGHT "Public domain font.  Share and enjoy."
DESTINATION 1
DEFAULT_CHAR 0
FONT_DESCENT 3
FONT_ASCENT 11
CAP_HEIGHT 10
X_HEIGHT 6
_GBDFED_INFO "Edited with gbdfed 1.6."
ENDPROPERTIES
CHARS 347
STARTCHAR char0
ENCODING 0
SWIDTH 923 0
DWIDTH 14 0
BBX 14 14 0 -3
BITMAP
0000
5550
0008
4000
0008
4000
0008
4000
0008
4000
0008
4000
2AA8
0000
ENDCHAR
STARTCHAR char1
ENCODING 1
SWIDTH 923 0
DWIDTH 14 0
BBX 14 14 0 -3
BITMAP
0000
0000
0000
0200
0700
0F80
1FC0
0F80
0700
0200
0000
0000
0000
0000
ENDCHAR
STARTCHAR char2
ENCODING 2
SWIDTH 923 0
DWIDTH 14 0
BBX 14 14 0 -3
BITMAP
5554
AAA8
5554
AAA8
5554
AAA8
5554
AAA8
5554
AAA8
5554
AAA8
5554
AAA8
ENDCHAR
STARTCHAR char3
ENCODING 3
SWIDTH 923 0
DWIDTH 14 0
BBX 14 14 0 -3
BITMAP
0000
6600
6600
7E00
6600
6600
01F8
0060
0060
0060
0060
0000
0000
0000
ENDCHAR
STARTCHAR char4
ENCODING 4
SWIDTH 923 0
DWIDTH 14 0
BBX 14 14 0 -3
BITMAP
0000
7C00
6000
7800
6000
61F0
6180
01E0
0180
0180
0180
0000
0000
0000
ENDCHAR
STARTCHAR char5
ENCODING 5
SWIDTH 923 0
DWIDTH 14 0
BBX 14 14 0 -3
BITMAP
0000
3800
6400
6000
6000
65E0
3990
0190
01E0
01B0
0190
0000
0000
0000
ENDCHAR
STARTCHAR char6
ENCODING 6
SWIDTH 923 0
DWIDTH 14 0
BBX 14 14 0 -3
BITMAP
0000
6000
6000
6000
6000
61F0
7D80
01E0
0180
0180
0180
0000
0000
0000
ENDCHAR
STARTCHAR char7
ENCODING 7
SWIDTH 923 0
DWIDTH 14 0
BBX 14 14 0 -3
BITMAP
0000
1800
2400
2400
1800
0000
0000
0000
0000
0000
0000
0000
0000
0000
ENDCHAR
STARTCHAR char8
ENCODING 8
SWIDTH 923 0
DWIDTH 14 0
BBX 14 14 0 -3
BITMAP
0000
0000
0200
0200
0200
1FC0
0200
0200
0200
0000
1FC0
0000
0000
0000
ENDCHAR
STARTCHAR char9
ENCODING 9
SWIDTH 923 0
DWIDTH 14 0
BBX 14 14 0 -3
BITMAP
0000
6300
7300
7B00
6F00
67C0
63C0
00C0
00C0
00C0
00F8
0000
0000
0000
ENDCHAR
STARTCHAR char10
ENCODING 10
SWIDTH 923 0
DWIDTH 14 0
BBX 14 14 0 -3
BITMAP
0000
6300
6300
6300
3600
1FF0
08C0
00C0
00C0
00C0
00C0
0000
0000
0000
ENDCHAR
STARTCHAR char11
ENCODING 11
SWIDTH 923 0
DWIDTH 14 0
BBX 14 14 0 -3
BITMAP
0200
0200
0200
0200
0200
0200
FE00
0000
0000
0000
0000
0000
0000
0000
ENDCHAR
STARTCHAR char12
ENCODING 12
SWIDTH 923 0
DWIDTH 14 0
BBX 14 14 0 -3
BITMAP
0000
0000
0000
0000
0000
0000
FE00
0200
0200
0200
0200
0200
0200
0200
ENDCHAR
STARTCHAR char13
ENCODING 13
SWIDTH 923 0
DWIDTH 14 0
BBX 14 14 0 -3
BITMAP
0000
0000
0000
0000
0000
0000
03FC
0200
0200
0200
0200
0200
0200
0200
ENDCHAR
STARTCHAR char14
ENCODING 14
SWIDTH 923 0
DWIDTH 14 0
BBX 14 14 0 -3
BITMAP
0200
0200
0200
0200
0200
0200
03FC
0000
0000
0000
0000
0000
0000
0000
ENDCHAR
STARTCHAR char15
ENCODING 15
SWIDTH 923 0
DWIDTH 14 0
BBX 14 14 0 -3
BITMAP
0200
0200
0200
0200
0200
0200
FFFC
0200
0200
0200
0200
0200
0200
0200
ENDCHAR
STARTCHAR char16
ENCODING 16
SWIDTH 923 0
DWIDTH 14 0
BBX 14 14 0 -3
BITMAP
FFFC
0000
0000
0000
0000
0000
0000
0000
0000
0000
0000
0000
0000
0000
ENDCHAR
STARTCHAR char17
ENCODING 17
SWIDTH 923 0
DWIDTH 14 0
BBX 14 14 0 -3
BITMAP
0000
0000
0000
FFFC
0000
0000
0000
0000
0000
0000
0000
0000
0000
0000
ENDCHAR
STARTCHAR char18
ENCODING 18
SWIDTH 923 0
DWIDTH 14 0
BBX 14 14 0 -3
BITMAP
0000
0000
0000
0000
0000
0000
FFFC
0000
0000
0000
0000
0000
0000
0000
ENDCHAR
STARTCHAR char19
ENCODING 19
SWIDTH 923 0
DWIDTH 14 0
BBX 14 14 0 -3
BITMAP
0000
0000
0000
0000
0000
0000
0000
0000
0000
0000
FFFC
0000
0000
0000
ENDCHAR
STARTCHAR char20
ENCODING 20
SWIDTH 923 0
DWIDTH 14 0
BBX 14 14 0 -3
BITMAP
0000
0000
0000
0000
0000
0000
0000
0000
0000
0000
0000
0000
0000
FFFC
ENDCHAR
STARTCHAR char21
ENCODING 21
SWIDTH 923 0
DWIDTH 14 0
BBX 14 14 0 -3
BITMAP
0200
0200
0200
0200
0200
0200
03FC
0200
0200
0200
0200
0200
0200
0200
ENDCHAR
STARTCHAR char22
ENCODING 22
SWIDTH 923 0
DWIDTH 14 0
BBX 14 14 0 -3
BITMAP
0200
0200
0200
0200
0200
0200
FE00
0200
0200
0200
0200
0200
0200
0200
ENDCHAR
STARTCHAR char23
ENCODING 23
SWIDTH 923 0
DWIDTH 14 0
BBX 14 14 0 -3
BITMAP
0200
0200
0200
0200
0200
0200
FFFC
0000
0000
0000
0000
0000
0000
0000
ENDCHAR
STARTCHAR char24
ENCODING 24
SWIDTH 923 0
DWIDTH 14 0
BBX 14 14 0 -3
BITMAP
0000
0000
0000
0000
0000
0000
FFFC
0200
0200
0200
0200
0200
0200
0200
ENDCHAR
STARTCHAR char25
ENCODING 25
SWIDTH 923 0
DWIDTH 14 0
BBX 14 14 0 -3
BITMAP
0200
0200
0200
0200
0200
0200
0200
0200
0200
0200
0200
0200
0200
0200
ENDCHAR
STARTCHAR char26
ENCODING 26
SWIDTH 923 0
DWIDTH 14 0
BBX 14 14 0 -3
BITMAP
0000
0000
0038
01C0
0E00
7000
0E00
01C0
0038
0000
7FF8
0000
0000
0000
ENDCHAR
STARTCHAR char27
ENCODING 27
SWIDTH 923 0
DWIDTH 14 0
BBX 14 14 0 -3
BITMAP
0000
0000
7000
0E00
01C0
0038
01C0
0E00
7000
0000
7FF8
0000
0000
0000
ENDCHAR
STARTCHAR char28
ENCODING 28
SWIDTH 923 0
DWIDTH 14 0
BBX 14 14 0 -3
BITMAP
0000
0000
0000
0000
7FF8
1860
1860
1860
1860
1860
1860
0000
0000
0000
ENDCHAR
STARTCHAR char29
ENCODING 29
SWIDTH 923 0
DWIDTH 14 0
BBX 14 14 0 -3
BITMAP
0000
0000
0060
00C0
3FF0
0180
0300
0600
3FF0
0C00
1800
0000
0000
0000
ENDCHAR
STARTCHAR char30
ENCODING 30
SWIDTH 923 0
DWIDTH 14 0
BBX 14 14 0 -3
BITMAP
0000
03E0
0630
0C00
0C00
0600
3FC0
0600
0C00
1F30
19E0
0000
0000
0000
ENDCHAR
STARTCHAR char31
ENCODING 31
SWIDTH 923 0
DWIDTH 14 0
BBX 14 14 0 -3
BITMAP
0000
0000
0000
0000
0000
0000
0780
0000
0000
0000
0000
0000
0000
0000
ENDCHAR
STARTCHAR space
ENCODING 32
SWIDTH 923 0
DWIDTH 14 0
BBX 14 14 0 -3
BITMAP
0000
0000
0000
0000
0000
0000
0000
0000
0000
0000
0000
0000
0000
0000
ENDCHAR
STARTCHAR item_potion, fired_flask
ENCODING 33
SWIDTH 923 0
DWIDTH 14 0
BBX 14 14 0 -3
BITMAP
0000
0300
0300
0300
0300
0300
0300
0300
0000
0300
0300
0000
0000
0000
ENDCHAR
STARTCHAR item_amulet
ENCODING 34
SWIDTH 923 0
DWIDTH 14 0
BBX 14 14 0 -3
BITMAP
0000
0CC0
0CC0
0CC0
0480
0000
0000
0000
0000
0000
0000
0000
0000
0000
ENDCHAR
STARTCHAR wall, grate, fired_bolt, explosion
ENCODING 35
SWIDTH 923 0
DWIDTH 14 0
BBX 14 14 0 -3
BITMAP
0000
0CC0
0CC0
7FF8
0CC0
0CC0
0CC0
0CC0
7FF8
0CC0
0CC0
0000
0000
0000
ENDCHAR
STARTCHAR item_gold
ENCODING 36
SWIDTH 923 0
DWIDTH 14 0
BBX 14 14 0 -3
BITMAP
0000
0300
1FE0
3330
3300
1FE0
0330
3330
3330
1FE0
0300
0000
0000
0000
ENDCHAR
STARTCHAR item_food, fired_chunk
ENCODING 37
SWIDTH 923 0
DWIDTH 14 0
BBX 14 14 0 -3
BITMAP
0000
3030
4860
48C0
3180
0300
0600
0C60
1890
3090
6060
0000
0000
0000
ENDCHAR
STARTCHAR char38
ENCODING 38
SWIDTH 923 0
DWIDTH 14 0
BBX 14 14 0 -3
BITMAP
0000
0F00
1980
1980
1B00
0E00
0F00
19E0
30C0
31E0
1F30
0000
0000
0000
ENDCHAR
STARTCHAR door_open
ENCODING 39
SWIDTH 923 0
DWIDTH 14 0
BBX 14 14 0 -3
BITMAP
0000
0300
0300
0300
0200
0000
0000
0000
0000
0000
0000
0000
0000
0000
ENDCHAR
STARTCHAR item_missile
ENCODING 40
SWIDTH 923 0
DWIDTH 14 0
BBX 14 14 0 -3
BITMAP
0000
0180
0300
0600
0C00
0C00
0C00
0C00
0C00
0600
0300
0180
0000
0000
ENDCHAR
STARTCHAR item_weapon, fired_weapon
ENCODING 41
SWIDTH 923 0
DWIDTH 14 0
BBX 14 14 0 -3
BITMAP
0000
0600
0300
0180
00C0
00C0
00C0
00C0
00C0
0180
0300
0600
0000
0000
ENDCHAR
STARTCHAR wall_magic, fired_zap
ENCODING 42
SWIDTH 923 0
DWIDTH 14 0
BBX 14 14 0 -3
BITMAP
0000
0000
0000
0300
1B60
0FC0
0780
0FC0
1B60
0300
0000
0000
0000
0000
ENDCHAR
STARTCHAR door_closed, fired_book
ENCODING 43
SWIDTH 923 0
DWIDTH 14 0
BBX 14 14 0 -3
BITMAP
0000
0000
0000
0300
0300
0300
3FF0
0300
0300
0300
0000
0000
0000
0000
ENDCHAR
STARTCHAR floor_magic
ENCODING 44
SWIDTH 923 0
DWIDTH 14 0
BBX 14 14 0 -3
BITMAP
0000
0000
0000
0000
0000
0000
0000
0000
0300
0300
0300
0600
0000
0000
ENDCHAR
STARTCHAR char45
ENCODING 45
SWIDTH 923 0
DWIDTH 14 0
BBX 14 14 0 -3
BITMAP
0000
0000
0000
0000
0000
0000
1FE0
0000
0000
0000
0000
0000
0000
0000
ENDCHAR
STARTCHAR floor
ENCODING 46
SWIDTH 923 0
DWIDTH 14 0
BBX 14 14 0 -3
BITMAP
0000
0000
0000
0000
0000
0000
0000
0000
0000
0300
0300
0000
0000
0000
ENDCHAR
STARTCHAR item_wand, fired_stick
ENCODING 47
SWIDTH 923 0
DWIDTH 14 0
BBX 14 14 0 -3
BITMAP
0000
0030
0060
00C0
0180
0300
0600
0C00
1800
3000
6000
0000
0000
0000
ENDCHAR
STARTCHAR item_orb
ENCODING 48
SWIDTH 923 0
DWIDTH 14 0
BBX 14 14 0 -3
BITMAP
0000
0FC0
1860
3030
6018
6318
6318
6018
3030
1860
0FC0
0000
0000
0000
ENDCHAR
STARTCHAR char49
ENCODING 49
SWIDTH 923 0
DWIDTH 14 0
BBX 14 14 0 -3
BITMAP
0000
0700
0F00
1B00
0300
0300
0300
0300
0300
0300
3FF0
0000
0000
0000
ENDCHAR
STARTCHAR char50
ENCODING 50
SWIDTH 923 0
DWIDTH 14 0
BBX 14 14 0 -3
BITMAP
0000
1FE0
3030
6018
0018
0030
00C0
0300
0C00
3000
7FF8
0000
0000
0000
ENDCHAR
STARTCHAR char51
ENCODING 51
SWIDTH 923 0
DWIDTH 14 0
BBX 14 14 0 -3
BITMAP
0000
1FE0
3030
6018
0030
03F0
0030
0018
6018
3030
1FE0
0000
0000
0000
ENDCHAR
STARTCHAR char52
ENCODING 52
SWIDTH 923 0
DWIDTH 14 0
BBX 14 14 0 -3
BITMAP
0000
0060
01E0
0660
1860
6060
7FF8
0060
0060
0060
0060
0000
0000
0000
ENDCHAR
STARTCHAR char53
ENCODING 53
SWIDTH 923 0
DWIDTH 14 0
BBX 14 14 0 -3
BITMAP
0000
7FF0
6000
6000
6000
7FE0
0030
0018
0018
6030
3FE0
0000
0000
0000
ENDCHAR
STARTCHAR char54
ENCODING 54
SWIDTH 923 0
DWIDTH 14 0
BBX 14 14 0 -3
BITMAP
0000
1FE0
3030
6000
6000
7FE0
6030
6018
6018
3030
1FE0
0000
0000
0000
ENDCHAR
STARTCHAR char55
ENCODING 55
SWIDTH 923 0
DWIDTH 14 0
BBX 14 14 0 -3
BITMAP
0000
3FF8
0018
0030
0060
00C0
0180
0300
0600
0C00
1800
0000
0000
0000
ENDCHAR
STARTCHAR statue
ENCODING 56
SWIDTH 923 0
DWIDTH 14 0
BBX 14 14 0 -3
BITMAP
0000
1FE0
3030
6018
3030
1FE0
3030
6018
6018
3030
1FE0
0000
0000
0000
ENDCHAR
STARTCHAR char57
ENCODING 57
SWIDTH 923 0
DWIDTH 14 0
BBX 14 14 0 -3
BITMAP
0000
1FE0
3030
6018
3018
1FF8
0018
0018
0018
3030
1FE0
0000
0000
0000
ENDCHAR
STARTCHAR item_book
ENCODING 58
SWIDTH 923 0
DWIDTH 14 0
BBX 14 14 0 -3
BITMAP
0000
0000
0000
0000
0300
0300
0000
0000
0300
0300
0000
0000
0000
0000
ENDCHAR
STARTCHAR char59
ENCODING 59
SWIDTH 923 0
DWIDTH 14 0
BBX 14 14 0 -3
BITMAP
0000
0000
0000
0000
0300
0300
0000
0000
0300
0300
0300
0600
0000
0000
ENDCHAR
STARTCHAR stairs_up
ENCODING 60
SWIDTH 923 0
DWIDTH 14 0
BBX 14 14 0 -3
BITMAP
0000
0000
0030
00C0
0300
0C00
3000
0C00
0300
00C0
0030
0000
0000
0000
ENDCHAR
STARTCHAR item_ring, fired_trinket
ENCODING 61
SWIDTH 923 0
DWIDTH 14 0
BBX 14 14 0 -3
BITMAP
0000
0000
0000
0000
3FF0
0000
0000
0000
3FF0
0000
0000
0000
0000
0000
ENDCHAR
STARTCHAR stairs_down
ENCODING 62
SWIDTH 923 0
DWIDTH 14 0
BBX 14 14 0 -3
BITMAP
0000
0000
3000
0C00
0300
00C0
0030
00C0
0300
0C00
3000
0000
0000
0000
ENDCHAR
STARTCHAR item_scroll, fired_scroll
ENCODING 63
SWIDTH 923 0
DWIDTH 14 0
BBX 14 14 0 -3
BITMAP
0000
0FC0
1860
3030
0060
0180
0300
0300
0000
0300
0300
0000
0000
0000
ENDCHAR
STARTCHAR char64
ENCODING 64
SWIDTH 923 0
DWIDTH 14 0
BBX 14 14 0 -3
BITMAP
0000
0000
1FE0
3030
6758
6CD8
6CD8
6CD8
6770
3000
1FE0
0000
0000
0000
ENDCHAR
STARTCHAR char65
ENCODING 65
SWIDTH 923 0
DWIDTH 14 0
BBX 14 14 0 -3
BITMAP
0000
0300
0780
0CC0
1860
3030
7FF8
6018
6018
6018
6018
0000
0000
0000
ENDCHAR
STARTCHAR char66
ENCODING 66
SWIDTH 923 0
DWIDTH 14 0
BBX 14 14 0 -3
BITMAP
0000
7F80
60C0
6060
60C0
7FC0
6060
6030
6030
6060
7FC0
0000
0000
0000
ENDCHAR
STARTCHAR char67
ENCODING 67
SWIDTH 923 0
DWIDTH 14 0
BBX 14 14 0 -3
BITMAP
0000
1FE0
3030
6018
6000
6000
6000
6000
6018
3030
1FE0
0000
0000
0000
ENDCHAR
STARTCHAR char68
ENCODING 68
SWIDTH 923 0
DWIDTH 14 0
BBX 14 14 0 -3
BITMAP
0000
7FC0
6060
6030
6018
6018
6018
6018
6030
6060
7FC0
0000
0000
0000
ENDCHAR
STARTCHAR char69
ENCODING 69
SWIDTH 923 0
DWIDTH 14 0
BBX 14 14 0 -3
BITMAP
0000
7FF0
6000
6000
6000
7F80
6000
6000
6000
6000
7FF0
0000
0000
0000
ENDCHAR
STARTCHAR char70
ENCODING 70
SWIDTH 923 0
DWIDTH 14 0
BBX 14 14 0 -3
BITMAP
0000
7FF0
6000
6000
6000
7F80
6000
6000
6000
6000
6000
0000
0000
0000
ENDCHAR
STARTCHAR char71
ENCODING 71
SWIDTH 923 0
DWIDTH 14 0
BBX 14 14 0 -3
BITMAP
0000
1FE0
3030
6018
6000
6000
60F8
6018
6018
3038
1FE8
0000
0000
0000
ENDCHAR
STARTCHAR char72
ENCODING 72
SWIDTH 923 0
DWIDTH 14 0
BBX 14 14 0 -3
BITMAP
0000
6018
6018
6018
6018
7FF8
6018
6018
6018
6018
6018
0000
0000
0000
ENDCHAR
STARTCHAR char73
ENCODING 73
SWIDTH 923 0
DWIDTH 14 0
BBX 14 14 0 -3
BITMAP
0000
1FE0
0300
0300
0300
0300
0300
0300
0300
0300
1FE0
0000
0000
0000
ENDCHAR
STARTCHAR char74
ENCODING 74
SWIDTH 923 0
DWIDTH 14 0
BBX 14 14 0 -3
BITMAP
0000
03F0
00C0
00C0
00C0
00C0
00C0
30C0
30C0
1980
0F00
0000
0000
0000
ENDCHAR
STARTCHAR char75
ENCODING 75
SWIDTH 923 0
DWIDTH 14 0
BBX 14 14 0 -3
BITMAP
0000
60C0
6180
6300
6600
7E00
6600
6300
6180
60C0
6060
0000
0000
0000
ENDCHAR
STARTCHAR char76
ENCODING 76
SWIDTH 923 0
DWIDTH 14 0
BBX 14 14 0 -3
BITMAP
0000
6000
6000
6000
6000
6000
6000
6000
6000
6000
7FF0
0000
0000
0000
ENDCHAR
STARTCHAR char77
ENCODING 77
SWIDTH 923 0
DWIDTH 14 0
BBX 14 14 0 -3
BITMAP
0000
6018
7038
7878
6CD8
6798
6318
6018
6018
6018
6018
0000
0000
0000
ENDCHAR
STARTCHAR char78
ENCODING 78
SWIDTH 923 0
DWIDTH 14 0
BBX 14 14 0 -3
BITMAP
0000
6030
7030
7830
6C30
6630
6330
61B0
60F0
6070
6030
0000
0000
0000
ENDCHAR
STARTCHAR char79
ENCODING 79
SWIDTH 923 0
DWIDTH 14 0
BBX 14 14 0 -3
BITMAP
0000
1FE0
3030
6018
6018
6018
6018
6018
6018
3030
1FE0
0000
0000
0000
ENDCHAR
STARTCHAR char80
ENCODING 80
SWIDTH 923 0
DWIDTH 14 0
BBX 14 14 0 -3
BITMAP
0000
7FC0
6060
6030
6030
6060
7FC0
6000
6000
6000
6000
0000
0000
0000
ENDCHAR
STARTCHAR char81
ENCODING 81
SWIDTH 923 0
DWIDTH 14 0
BBX 14 14 0 -3
BITMAP
0000
1FE0
3030
6018
6018
6018
6018
6018
60D8
3070
1FF0
0018
0000
0000
ENDCHAR
STARTCHAR char82
ENCODING 82
SWIDTH 923 0
DWIDTH 14 0
BBX 14 14 0 -3
BITMAP
0000
7FC0
6060
6030
6030
6060
7FC0
6180
60C0
6060
6030
0000
0000
0000
ENDCHAR
STARTCHAR char83
ENCODING 83
SWIDTH 923 0
DWIDTH 14 0
BBX 14 14 0 -3
BITMAP
0000
1FF0
3018
6000
3000
1FE0
0030
0018
6018
3030
1FE0
0000
0000
0000
ENDCHAR
STARTCHAR char84
ENCODING 84
SWIDTH 923 0
DWIDTH 14 0
BBX 14 14 0 -3
BITMAP
0000
3FF0
0300
0300
0300
0300
0300
0300
0300
0300
0300
0000
0000
0000
ENDCHAR
STARTCHAR char85
ENCODING 85
SWIDTH 923 0
DWIDTH 14 0
BBX 14 14 0 -3
BITMAP
0000
6018
6018
6018
6018
6018
6018
6018
6018
3030
1FE0
0000
0000
0000
ENDCHAR
STARTCHAR char86
ENCODING 86
SWIDTH 923 0
DWIDTH 14 0
BBX 14 14 0 -3
BITMAP
0000
6018
6018
3030
3030
1860
1860
0CC0
0780
0780
0300
0000
0000
0000
ENDCHAR
STARTCHAR char87
ENCODING 87
SWIDTH 923 0
DWIDTH 14 0
BBX 14 14 0 -3
BITMAP
0000
6018
6018
6018
6318
3330
37B0
3FF0
1CE0
1CE0
1860
0000
0000
0000
ENDCHAR
STARTCHAR char88
ENCODING 88
SWIDTH 923 0
DWIDTH 14 0
BBX 14 14 0 -3
BITMAP
0000
3030
1860
0CC0
0780
0300
0300
0780
0CC0
1860
3030
0000
0000
0000
ENDCHAR
STARTCHAR char89
ENCODING 89
SWIDTH 923 0
DWIDTH 14 0
BBX 14 14 0 -3
BITMAP
0000
6018
3030
1860
0CC0
0780
0300
0300
0300
0300
0300
0000
0000
0000
ENDCHAR
STARTCHAR char90
ENCODING 90
SWIDTH 923 0
DWIDTH 14 0
BBX 14 14 0 -3
BITMAP
0000
7FF0
0060
00C0
0180
0300
0600
0C00
1800
3000
7FF0
0000
0000
0000
ENDCHAR
STARTCHAR item_armour, fired_armour
ENCODING 91
SWIDTH 923 0
DWIDTH 14 0
BBX 14 14 0 -3
BITMAP
0000
07C0
0600
0600
0600
0600
0600
0600
0600
0600
0600
07C0
0000
0000
ENDCHAR
STARTCHAR item_rod
ENCODING 92
SWIDTH 923 0
DWIDTH 14 0
BBX 14 14 0 -3
BITMAP
0000
6000
3000
1800
0C00
0600
0300
0180
00C0
0060
0030
0000
0000
0000
ENDCHAR
STARTCHAR char93
ENCODING 93
SWIDTH 923 0
DWIDTH 14 0
BBX 14 14 0 -3
BITMAP
0000
0F80
0180
0180
0180
0180
0180
0180
0180
0180
0180
0F80
0000
0000
ENDCHAR
STARTCHAR trap
ENCODING 94
SWIDTH 923 0
DWIDTH 14 0
BBX 14 14 0 -3
BITMAP
0000
0300
0780
0CC0
1860
3030
0000
0000
0000
0000
0000
0000
0000
0000
ENDCHAR
STARTCHAR altar
ENCODING 95
SWIDTH 923 0
DWIDTH 14 0
BBX 14 14 0 -3
BITMAP
0000
0000
0000
0000
0000
0000
0000
0000
0000
0000
0000
7FF8
0000
0000
ENDCHAR
STARTCHAR fired_missile
ENCODING 96
SWIDTH 923 0
DWIDTH 14 0
BBX 14 14 0 -3
BITMAP
0000
0600
0300
0180
0000
0000
0000
0000
0000
0000
0000
0000
0000
0000
ENDCHAR
STARTCHAR char97
ENCODING 97
SWIDTH 923 0
DWIDTH 14 0
BBX 14 14 0 -3
BITMAP
0000
0000
0000
0000
0FF0
1818
0018
1FF8
3018
3018
1FE8
0000
0000
0000
ENDCHAR
STARTCHAR char98
ENCODING 98
SWIDTH 923 0
DWIDTH 14 0
BBX 14 14 0 -3
BITMAP
0000
6000
6000
6000
6FC0
7060
6030
6018
6030
7060
6FC0
0000
0000
0000
ENDCHAR
STARTCHAR char99
ENCODING 99
SWIDTH 923 0
DWIDTH 14 0
BBX 14 14 0 -3
BITMAP
0000
0000
0000
0000
1FE0
3030
6000
6000
6000
3030
1FE0
0000
0000
0000
ENDCHAR
STARTCHAR char100
ENCODING 100
SWIDTH 923 0
DWIDTH 14 0
BBX 14 14 0 -3
BITMAP
0000
0018
0018
0018
0FD8
1838
3018
6018
3018
1838
0FD8
0000
0000
0000
ENDCHAR
STARTCHAR char101
ENCODING 101
SWIDTH 923 0
DWIDTH 14 0
BBX 14 14 0 -3
BITMAP
0000
0000
0000
0000
1FC0
3060
6030
7FF0
6000
3030
1FE0
0000
0000
0000
ENDCHAR
STARTCHAR char102
ENCODING 102
SWIDTH 923 0
DWIDTH 14 0
BBX 14 14 0 -3
BITMAP
0000
07C0
0C60
0C00
0C00
7F80
0C00
0C00
0C00
0C00
0C00
0000
0000
0000
ENDCHAR
STARTCHAR char103
ENCODING 103
SWIDTH 923 0
DWIDTH 14 0
BBX 14 14 0 -3
BITMAP
0000
0000
0000
0000
0FD8
1838
3018
6018
3018
1818
0FF8
0018
3018
1FF0
ENDCHAR
STARTCHAR char104
ENCODING 104
SWIDTH 923 0
DWIDTH 14 0
BBX 14 14 0 -3
BITMAP
0000
6000
6000
6000
6FC0
7860
6030
6030
6030
6030
6030
0000
0000
0000
ENDCHAR
STARTCHAR char105
ENCODING 105
SWIDTH 923 0
DWIDTH 14 0
BBX 14 14 0 -3
BITMAP
0000
0300
0300
0000
0F00
0300
0300
0300
0300
0300
1FE0
0000
0000
0000
ENDCHAR
STARTCHAR char106
ENCODING 106
SWIDTH 923 0
DWIDTH 14 0
BBX 14 14 0 -3
BITMAP
0000
0060
0060
0000
01E0
0060
0060
0060
0060
0060
0060
1860
0CC0
0780
ENDCHAR
STARTCHAR char107
ENCODING 107
SWIDTH 923 0
DWIDTH 14 0
BBX 14 14 0 -3
BITMAP
0000
1800
1800
1800
1860
18C0
1980
1B00
1F80
1CC0
1860
0000
0000
0000
ENDCHAR
STARTCHAR char108
ENCODING 108
SWIDTH 923 0
DWIDTH 14 0
BBX 14 14 0 -3
BITMAP
0000
0F00
0300
0300
0300
0300
0300
0300
0300
0300
1FE0
0000
0000
0000
ENDCHAR
STARTCHAR char109
ENCODING 109
SWIDTH 923 0
DWIDTH 14 0
BBX 14 14 0 -3
BITMAP
0000
0000
0000
0000
5CE0
77B0
6318
6318
6318
6318
6318
0000
0000
0000
ENDCHAR
STARTCHAR char110
ENCODING 110
SWIDTH 923 0
DWIDTH 14 0
BBX 14 14 0 -3
BITMAP
0000
0000
0000
0000
6FC0
7860
7030
6030
6030
6030
6030
0000
0000
0000
ENDCHAR
STARTCHAR char111
ENCODING 111
SWIDTH 923 0
DWIDTH 14 0
BBX 14 14 0 -3
BITMAP
0000
0000
0000
0000
1FE0
3030
6018
6018
6018
3030
1FE0
0000
0000
0000
ENDCHAR
STARTCHAR char112
ENCODING 112
SWIDTH 923 0
DWIDTH 14 0
BBX 14 14 0 -3
BITMAP
0000
0000
0000
0000
6FC0
7060
6030
6018
6030
7060
6FC0
6000
6000
6000
ENDCHAR
STARTCHAR char113
ENCODING 113
SWIDTH 923 0
DWIDTH 14 0
BBX 14 14 0 -3
BITMAP
0000
0000
0000
0000
0FD8
1838
3018
6018
3018
1838
0FD8
0018
0018
0018
ENDCHAR
STARTCHAR char114
ENCODING 114
SWIDTH 923 0
DWIDTH 14 0
BBX 14 14 0 -3
BITMAP
0000
0000
0000
0000
6FC0
3860
3030
3000
3000
3000
3000
0000
0000
0000
ENDCHAR
STARTCHAR char115
ENCODING 115
SWIDTH 923 0
DWIDTH 14 0
BBX 14 14 0 -3
BITMAP
0000
0000
0000
0000
1FE0
3030
3000
1FE0
0030
3030
1FE0
0000
0000
0000
ENDCHAR
STARTCHAR char116
ENCODING 116
SWIDTH 923 0
DWIDTH 14 0
BBX 14 14 0 -3
BITMAP
0000
0600
0600
0600
3FC0
0600
0600
0600
0600
0630
03E0
0000
0000
0000
ENDCHAR
STARTCHAR char117
ENCODING 117
SWIDTH 923 0
DWIDTH 14 0
BBX 14 14 0 -3
BITMAP
0000
0000
0000
0000
3018
3018
3018
3018
3018
1838
0FD8
0000
0000
0000
ENDCHAR
STARTCHAR char118
ENCODING 118
SWIDTH 923 0
DWIDTH 14 0
BBX 14 14 0 -3
BITMAP
0000
0000
0000
0000
6018
6018
3030
1860
0CC0
0780
0300
0000
0000
0000
ENDCHAR
STARTCHAR char119
ENCODING 119
SWIDTH 923 0
DWIDTH 14 0
BBX 14 14 0 -3
BITMAP
0000
0000
0000
0000
6018
6018
6018
3330
37B0
3CF0
1860
0000
0000
0000
ENDCHAR
STARTCHAR char120
ENCODING 120
SWIDTH 923 0
DWIDTH 14 0
BBX 14 14 0 -3
BITMAP
0000
0000
0000
0000
6030
3060
0D80
0700
0D80
3060
6030
0000
0000
0000
ENDCHAR
STARTCHAR char121
ENCODING 121
SWIDTH 923 0
DWIDTH 14 0
BBX 14 14 0 -3
BITMAP
0000
0000
0000
0000
3018
3018
3018
3018
3018
1838
0FD8
0018
1830
0FE0
ENDCHAR
STARTCHAR char122
ENCODING 122
SWIDTH 923 0
DWIDTH 14 0
BBX 14 14 0 -3
BITMAP
0000
0000
0000
0000
3FF0
0030
00C0
0300
0C00
3000
3FF0
0000
0000
0000
ENDCHAR
STARTCHAR invis_exposed
ENCODING 123
SWIDTH 923 0
DWIDTH 14 0
BBX 14 14 0 -3
BITMAP
0000
01E0
0300
0600
0600
0300
0E00
0300
0600
0600
0300
01E0
0000
0000
ENDCHAR
STARTCHAR item_staff
ENCODING 124
SWIDTH 923 0
DWIDTH 14 0
BBX 14 14 0 -3
BITMAP
0000
0300
0300
0300
0300
0300
0300
0300
0300
0300
0300
0300
0000
0000
ENDCHAR
STARTCHAR item_miscellany
ENCODING 125
SWIDTH 923 0
DWIDTH 14 0
BBX 14 14 0 -3
BITMAP
0000
1E00
0300
0180
0180
0300
01C0
0300
0180
0180
0300
1E00
0000
0000
ENDCHAR
STARTCHAR char126
ENCODING 126
SWIDTH 923 0
DWIDTH 14 0
BBX 14 14 0 -3
BITMAP
0000
0000
0000
0000
0000
1C00
3718
63B0
00E0
0000
0000
0000
0000
0000
ENDCHAR
STARTCHAR char127
ENCODING 127
SWIDTH 923 0
DWIDTH 14 0
BBX 14 14 0 -3
BITMAP
0000
0000
0000
0000
0000
0000
0000
0000
0000
0000
0000
0000
0000
0000
ENDCHAR
STARTCHAR char133
ENCODING 133
SWIDTH 923 0
DWIDTH 14 0
BBX 14 14 0 -3
BITMAP
0000
0000
0000
0000
0000
0000
0000
0000
0000
3330
3330
0000
0000
0000
ENDCHAR
STARTCHAR char136
ENCODING 136
SWIDTH 923 0
DWIDTH 14 0
BBX 14 14 0 -3
BITMAP
0300
0780
0CC0
0000
0000
0000
0000
0000
0000
0000
0000
0000
0000
0000
ENDCHAR
STARTCHAR char171
ENCODING 139
SWIDTH 923 0
DWIDTH 14 0
BBX 14 14 0 -3
BITMAP
0000
0000
0000
0000
0180
0300
0600
0C00
0600
0300
0180
0000
0000
0000
ENDCHAR
STARTCHAR char97
ENCODING 140
SWIDTH 923 0
DWIDTH 14 0
BBX 14 14 0 -3
BITMAP
0000
0000
0000
0000
3CF0
6318
6318
63F0
6300
6318
3CF0
0000
0000
0000
ENDCHAR
STARTCHAR char140
ENCODING 155
SWIDTH 923 0
DWIDTH 14 0
BBX 14 14 0 -3
BITMAP
0000
0000
0000
0000
0600
0300
0180
00C0
0180
0300
0600
0000
0000
0000
ENDCHAR
STARTCHAR char160
ENCODING 160
SWIDTH 923 0
DWIDTH 14 0
BBX 14 14 0 -3
BITMAP
0000
0000
0000
0000
0000
0000
0000
0000
0000
0000
0000
0000
0000
0000
ENDCHAR
STARTCHAR char33
ENCODING 161
SWIDTH 923 0
DWIDTH 14 0
BBX 14 14 0 -3
BITMAP
0000
0300
0300
0000
0300
0300
0300
0300
0300
0300
0300
0000
0000
0000
ENDCHAR
STARTCHAR char30
ENCODING 163
SWIDTH 923 0
DWIDTH 14 0
BBX 14 14 0 -3
BITMAP
0000
03E0
0630
0C00
0C00
0600
3FC0
0600
0C00
1F30
19E0
0000
0000
0000
ENDCHAR
STARTCHAR char124
ENCODING 166
SWIDTH 923 0
DWIDTH 14 0
BBX 14 14 0 -3
BITMAP
0000
0300
0300
0300
0300
0300
0000
0300
0300
0300
0300
0300
0000
0000
ENDCHAR
STARTCHAR cloud
ENCODING 167
SWIDTH 923 0
DWIDTH 14 0
BBX 14 14 0 -3
BITMAP
0000
07E0
0C30
0600
1F80
30C0
1860
0C30
07E0
0180
30C0
1F80
0000
0000
ENDCHAR
STARTCHAR char168
ENCODING 168
SWIDTH 923 0
DWIDTH 14 0
BBX 14 14 0 -3
BITMAP
0CC0
0CC0
0000
0000
0000
0000
0000
0000
0000
0000
0000
0000
0000
0000
ENDCHAR
STARTCHAR teleporter
ENCODING 169
SWIDTH 923 0
DWIDTH 14 0
BBX 14 14 0 -3
BITMAP
0000
0000
0FC0
1860
3030
2310
2410
2410
2310
3030
1860
0FC0
0000
0000
ENDCHAR
STARTCHAR char171
ENCODING 171
SWIDTH 923 0
DWIDTH 14 0
BBX 14 14 0 -3
BITMAP
0000
0000
0000
0000
0660
0CC0
1980
3300
1980
0CC0
0660
0000
0000
0000
ENDCHAR
STARTCHAR char169
ENCODING 174
SWIDTH 923 0
DWIDTH 14 0
BBX 14 14 0 -3
BITMAP
0000
0000
0FC0
1860
3030
2710
2490
2710
2490
3030
1860
0FC0
0000
0000
ENDCHAR
STARTCHAR char7
ENCODING 176
SWIDTH 923 0
DWIDTH 14 0
BBX 14 14 0 -3
BITMAP
0000
0300
0480
0480
0300
0000
0000
0000
0000
0000
0000
0000
0000
0000
ENDCHAR
STARTCHAR char8
ENCODING 177
SWIDTH 923 0
DWIDTH 14 0
BBX 14 14 0 -3
BITMAP
0000
0000
0200
0200
0200
1FC0
0200
0200
0200
0000
1FC0
0000
0000
0000
ENDCHAR
STARTCHAR char178
ENCODING 178
SWIDTH 923 0
DWIDTH 14 0
BBX 14 14 0 -3
BITMAP
0700
0880
0100
0200
0400
0F80
0000
0000
0000
0000
0000
0000
0000
0000
ENDCHAR
STARTCHAR char179
ENCODING 179
SWIDTH 923 0
DWIDTH 14 0
BBX 14 14 0 -3
BITMAP
0700
0080
0300
0080
0080
0700
0000
0000
0000
0000
0000
0000
0000
0000
ENDCHAR
STARTCHAR char180
ENCODING 180
SWIDTH 923 0
DWIDTH 14 0
BBX 14 14 0 -3
BITMAP
0180
0300
0600
0000
0000
0000
0000
0000
0000
0000
0000
0000
0000
0000
ENDCHAR
STARTCHAR floor
ENCODING 183
SWIDTH 923 0
DWIDTH 14 0
BBX 14 14 0 -3
BITMAP
0000
0000
0000
0000
0000
0000
0300
0300
0000
0000
0000
0000
0000
0000
ENDCHAR
STARTCHAR char185
ENCODING 185
SWIDTH 923 0
DWIDTH 14 0
BBX 14 14 0 -3
BITMAP
0600
0A00
0200
0200
0200
0F80
0000
0000
0000
0000
0000
0000
0000
0000
ENDCHAR
STARTCHAR char7
ENCODING 186
SWIDTH 923 0
DWIDTH 14 0
BBX 14 14 0 -3
BITMAP
0700
0880
0880
0880
0880
0700
0000
0000
0000
0000
0000
0000
0000
0000
ENDCHAR
STARTCHAR char171
ENCODING 187
SWIDTH 923 0
DWIDTH 14 0
BBX 14 14 0 -3
BITMAP
0000
0000
0000
0000
1980
0CC0
0660
0330
0660
0CC0
1980
0000
0000
0000
ENDCHAR
STARTCHAR char47
ENCODING 188
SWIDTH 923 0
DWIDTH 14 0
BBX 14 14 0 -3
BITMAP
0000
6030
2060
20C0
2180
2320
7660
0CA0
19F0
3020
6020
0000
0000
0000
ENDCHAR
STARTCHAR char189
ENCODING 189
SWIDTH 923 0
DWIDTH 14 0
BBX 14 14 0 -3
BITMAP
0000
6030
2060
20C0
2180
2360
7690
0C10
1820
3040
60F0
0000
0000
0000
ENDCHAR
STARTCHAR char190
ENCODING 190
SWIDTH 923 0
DWIDTH 14 0
BBX 14 14 0 -3
BITMAP
0000
3030
4860
10C0
0980
4B20
3660
0CA0
19F0
3020
6020
0000
0000
0000
ENDCHAR
STARTCHAR char63
ENCODING 191
SWIDTH 923 0
DWIDTH 14 0
BBX 14 14 0 -3
BITMAP
0000
0300
0300
0000
0300
0300
0600
1800
3030
1860
0FC0
0000
0000
0000
ENDCHAR
STARTCHAR char65
ENCODING 192
SWIDTH 923 0
DWIDTH 14 0
BBX 14 14 0 -3
BITMAP
0600
0300
0000
0780
0CC0
1860
3030
7FF8
6018
6018
6018
0000
0000
0000
ENDCHAR
STARTCHAR char193
ENCODING 193
SWIDTH 923 0
DWIDTH 14 0
BBX 14 14 0 -3
BITMAP
0180
0300
0000
0780
0CC0
1860
3030
7FF8
6018
6018
6018
0000
0000
0000
ENDCHAR
STARTCHAR char194
ENCODING 194
SWIDTH 923 0
DWIDTH 14 0
BBX 14 14 0 -3
BITMAP
0300
0480
0000
0780
0CC0
1860
3030
7FF8
6018
6018
6018
0000
0000
0000
ENDCHAR
STARTCHAR char195
ENCODING 195
SWIDTH 923 0
DWIDTH 14 0
BBX 14 14 0 -3
BITMAP
0660
1980
0000
0780
0CC0
1860
3030
7FF8
6018
6018
6018
0000
0000
0000
ENDCHAR
STARTCHAR char196
ENCODING 196
SWIDTH 923 0
DWIDTH 14 0
BBX 14 14 0 -3
BITMAP
0CC0
0CC0
0000
0780
0CC0
1860
3030
7FF8
6018
6018
6018
0000
0000
0000
ENDCHAR
STARTCHAR char197
ENCODING 197
SWIDTH 923 0
DWIDTH 14 0
BBX 14 14 0 -3
BITMAP
0300
0480
0480
0780
0CC0
1860
3030
7FF8
6018
6018
6018
0000
0000
0000
ENDCHAR
STARTCHAR char198
ENCODING 198
SWIDTH 923 0
DWIDTH 14 0
BBX 14 14 0 -3
BITMAP
0000
03F8
0780
0D80
1980
31F0
7F80
6180
6180
6180
61F8
0000
0000
0000
ENDCHAR
STARTCHAR char67
ENCODING 199
SWIDTH 923 0
DWIDTH 14 0
BBX 14 14 0 -3
BITMAP
0000
1FE0
3030
6018
6000
6000
6000
6000
6018
3030
1FE0
0180
04C0
0780
ENDCHAR
STARTCHAR char69
ENCODING 200
SWIDTH 923 0
DWIDTH 14 0
BBX 14 14 0 -3
BITMAP
0600
0300
0000
7FF0
6000
6000
7F80
6000
6000
6000
7FF0
0000
0000
0000
ENDCHAR
STARTCHAR char201
ENCODING 201
SWIDTH 923 0
DWIDTH 14 0
BBX 14 14 0 -3
BITMAP
0300
0600
0000
7FF0
6000
6000
7F80
6000
6000
6000
7FF0
0000
0000
0000
ENDCHAR
STARTCHAR char202
ENCODING 202
SWIDTH 923 0
DWIDTH 14 0
BBX 14 14 0 -3
BITMAP
0600
0900
0000
7FF0
6000
6000
7F80
6000
6000
6000
7FF0
0000
0000
0000
ENDCHAR
STARTCHAR char203
ENCODING 203
SWIDTH 923 0
DWIDTH 14 0
BBX 14 14 0 -3
BITMAP
0D80
0D80
0000
7FF0
6000
6000
7F80
6000
6000
6000
7FF0
0000
0000
0000
ENDCHAR
STARTCHAR char73
ENCODING 204
SWIDTH 923 0
DWIDTH 14 0
BBX 14 14 0 -3
BITMAP
0600
0300
0000
1FE0
0300
0300
0300
0300
0300
0300
1FE0
0000
0000
0000
ENDCHAR
STARTCHAR char205
ENCODING 205
SWIDTH 923 0
DWIDTH 14 0
BBX 14 14 0 -3
BITMAP
0180
0300
0000
1FE0
0300
0300
0300
0300
0300
0300
1FE0
0000
0000
0000
ENDCHAR
STARTCHAR char206
ENCODING 206
SWIDTH 923 0
DWIDTH 14 0
BBX 14 14 0 -3
BITMAP
0300
0480
0000
1FE0
0300
0300
0300
0300
0300
0300
1FE0
0000
0000
0000
ENDCHAR
STARTCHAR char207
ENCODING 207
SWIDTH 923 0
DWIDTH 14 0
BBX 14 14 0 -3
BITMAP
0CC0
0CC0
0000
1FE0
0300
0300
0300
0300
0300
0300
1FE0
0000
0000
0000
ENDCHAR
STARTCHAR char68
ENCODING 208
SWIDTH 923 0
DWIDTH 14 0
BBX 14 14 0 -3
BITMAP
0000
3FC0
3060
3030
3018
7E18
3018
3018
3030
3060
3FC0
0000
0000
0000
ENDCHAR
STARTCHAR char78
ENCODING 209
SWIDTH 923 0
DWIDTH 14 0
BBX 14 14 0 -3
BITMAP
0660
1980
0000
7818
6C18
6618
6318
6198
60D8
6078
6038
0000
0000
0000
ENDCHAR
STARTCHAR char79
ENCODING 210
SWIDTH 923 0
DWIDTH 14 0
BBX 14 14 0 -3
BITMAP
0600
0300
0000
1FE0
3030
6018
6018
6018
6018
3030
1FE0
0000
0000
0000
ENDCHAR
STARTCHAR char79
ENCODING 211
SWIDTH 923 0
DWIDTH 14 0
BBX 14 14 0 -3
BITMAP
0180
0300
0000
1FE0
3030
6018
6018
6018
6018
3030
1FE0
0000
0000
0000
ENDCHAR
STARTCHAR char79
ENCODING 212
SWIDTH 923 0
DWIDTH 14 0
BBX 14 14 0 -3
BITMAP
0300
0480
0000
1FE0
3030
6018
6018
6018
6018
3030
1FE0
0000
0000
0000
ENDCHAR
STARTCHAR char79
ENCODING 213
SWIDTH 923 0
DWIDTH 14 0
BBX 14 14 0 -3
BITMAP
0660
1980
0000
1FE0
3030
6018
6018
6018
6018
3030
1FE0
0000
0000
0000
ENDCHAR
STARTCHAR char79
ENCODING 214
SWIDTH 923 0
DWIDTH 14 0
BBX 14 14 0 -3
BITMAP
0CC0
0CC0
0000
1FE0
3030
6018
6018
6018
6018
3030
1FE0
0000
0000
0000
ENDCHAR
STARTCHAR char215
ENCODING 215
SWIDTH 923 0
DWIDTH 14 0
BBX 14 14 0 -3
BITMAP
0000
0000
0000
0000
1860
0CC0
0780
0300
0780
0CC0
1860
0000
0000
0000
ENDCHAR
STARTCHAR char79
ENCODING 216
SWIDTH 923 0
DWIDTH 14 0
BBX 14 14 0 -3
BITMAP
0018
1FF0
3060
60F0
61B0
6330
6630
6C30
7830
3060
7FC0
C000
0000
0000
ENDCHAR
STARTCHAR char85
ENCODING 217
SWIDTH 923 0
DWIDTH 14 0
BBX 14 14 0 -3
BITMAP
0600
0300
6018
6018
6018
6018
6018
6018
6018
3030
1FE0
0000
0000
0000
ENDCHAR
STARTCHAR char85
ENCODING 218
SWIDTH 923 0
DWIDTH 14 0
BBX 14 14 0 -3
BITMAP
0180
0300
6018
6018
6018
6018
6018
6018
6018
3030
1FE0
0000
0000
0000
ENDCHAR
STARTCHAR char85
ENCODING 219
SWIDTH 923 0
DWIDTH 14 0
BBX 14 14 0 -3
BITMAP
0300
0480
6018
6018
6018
6018
6018
6018
6018
3030
1FE0
0000
0000
0000
ENDCHAR
STARTCHAR char85
ENCODING 220
SWIDTH 923 0
DWIDTH 14 0
BBX 14 14 0 -3
BITMAP
0CC0
0CC0
6018
6018
6018
6018
6018
6018
6018
3030
1FE0
0000
0000
0000
ENDCHAR
STARTCHAR char89
ENCODING 221
SWIDTH 923 0
DWIDTH 14 0
BBX 14 14 0 -3
BITMAP
0180
0300
6018
3030
1860
0CC0
0780
0300
0300
0300
0300
0000
0000
0000
ENDCHAR
STARTCHAR char222
ENCODING 222
SWIDTH 923 0
DWIDTH 14 0
BBX 14 14 0 -3
BITMAP
0000
6000
6000
7FC0
6060
6030
6030
6060
7FC0
6000
6000
0000
0000
0000
ENDCHAR
STARTCHAR char66
ENCODING 223
SWIDTH 923 0
DWIDTH 14 0
BBX 14 14 0 -3
BITMAP
0000
0FC0
1860
3030
3060
37E0
3030
3018
3018
3030
33E0
6000
0000
0000
ENDCHAR
STARTCHAR char97
ENCODING 224
SWIDTH 923 0
DWIDTH 14 0
BBX 14 14 0 -3
BITMAP
0000
0300
0180
0000
0FF0
1818
0018
1FF8
3018
3018
1FE8
0000
0000
0000
ENDCHAR
STARTCHAR char97
ENCODING 225
SWIDTH 923 0
DWIDTH 14 0
BBX 14 14 0 -3
BITMAP
0000
00C0
0180
0000
0FF0
1818
0018
1FF8
3018
3018
1FE8
0000
0000
0000
ENDCHAR
STARTCHAR char97
ENCODING 226
SWIDTH 923 0
DWIDTH 14 0
BBX 14 14 0 -3
BITMAP
0000
0180
0240
0000
0FF0
1818
0018
1FF8
3018
3018
1FE8
0000
0000
0000
ENDCHAR
STARTCHAR char97
ENCODING 227
SWIDTH 923 0
DWIDTH 14 0
BBX 14 14 0 -3
BITMAP
0000
0330
0CC0
0000
0FF0
1818
0018
1FF8
3018
3018
1FE8
0000
0000
0000
ENDCHAR
STARTCHAR char97
ENCODING 228
SWIDTH 923 0
DWIDTH 14 0
BBX 14 14 0 -3
BITMAP
0000
0660
0660
0000
0FF0
1818
0018
1FF8
3018
3018
1FE8
0000
0000
0000
ENDCHAR
STARTCHAR char97
ENCODING 229
SWIDTH 923 0
DWIDTH 14 0
BBX 14 14 0 -3
BITMAP
0180
0240
0180
0000
0FF0
1818
0018
1FF8
3018
3018
1FE8
0000
0000
0000
ENDCHAR
STARTCHAR char97
ENCODING 230
SWIDTH 923 0
DWIDTH 14 0
BBX 14 14 0 -3
BITMAP
0000
0000
0000
0000
1FF0
3318
0318
3FF0
6300
6318
3FF0
0000
0000
0000
ENDCHAR
STARTCHAR char99
ENCODING 231
SWIDTH 923 0
DWIDTH 14 0
BBX 14 14 0 -3
BITMAP
0000
0000
0000
0000
1FE0
3030
6000
6000
6000
3030
1FE0
0180
04C0
0780
ENDCHAR
STARTCHAR char101
ENCODING 232
SWIDTH 923 0
DWIDTH 14 0
BBX 14 14 0 -3
BITMAP
0000
0300
0600
0000
1FC0
3060
6030
7FF0
6000
3030
1FE0
0000
0000
0000
ENDCHAR
STARTCHAR char101
ENCODING 233
SWIDTH 923 0
DWIDTH 14 0
BBX 14 14 0 -3
BITMAP
0000
0600
0300
0000
1FC0
3060
6030
7FF0
6000
3030
1FE0
0000
0000
0000
ENDCHAR
STARTCHAR char101
ENCODING 234
SWIDTH 923 0
DWIDTH 14 0
BBX 14 14 0 -3
BITMAP
0000
0200
0500
0000
1FC0
3060
6030
7FF0
6000
3030
1FE0
0000
0000
0000
ENDCHAR
STARTCHAR char101
ENCODING 235
SWIDTH 923 0
DWIDTH 14 0
BBX 14 14 0 -3
BITMAP
0000
0D80
0D80
0000
1FC0
3060
6030
7FF0
6000
3030
1FE0
0000
0000
0000
ENDCHAR
STARTCHAR char105
ENCODING 236
SWIDTH 923 0
DWIDTH 14 0
BBX 14 14 0 -3
BITMAP
0C00
0600
0300
0000
0F00
0300
0300
0300
0300
0300
1FE0
0000
0000
0000
ENDCHAR
STARTCHAR char105
ENCODING 237
SWIDTH 923 0
DWIDTH 14 0
BBX 14 14 0 -3
BITMAP
00C0
0180
0300
0000
0F00
0300
0300
0300
0300
0300
1FE0
0000
0000
0000
ENDCHAR
STARTCHAR char105
ENCODING 238
SWIDTH 923 0
DWIDTH 14 0
BBX 14 14 0 -3
BITMAP
0000
0300
0480
0000
0F00
0300
0300
0300
0300
0300
1FE0
0000
0000
0000
ENDCHAR
STARTCHAR char105
ENCODING 239
SWIDTH 923 0
DWIDTH 14 0
BBX 14 14 0 -3
BITMAP
0000
0CC0
0CC0
0000
0F00
0300
0300
0300
0300
0300
1FE0
0000
0000
0000
ENDCHAR
STARTCHAR char100
ENCODING 240
SWIDTH 923 0
DWIDTH 14 0
BBX 14 14 0 -3
BITMAP
0000
0EC0
0300
0D80
00C0
1FE0
3030
6018
6018
3030
1FE0
0000
0000
0000
ENDCHAR
STARTCHAR char110
ENCODING 241
SWIDTH 923 0
DWIDTH 14 0
BBX 14 14 0 -3
BITMAP
0000
0CC0
3300
0000
6FC0
7860
7030
6030
6030
6030
6030
0000
0000
0000
ENDCHAR
STARTCHAR char111
ENCODING 242
SWIDTH 923 0
DWIDTH 14 0
BBX 14 14 0 -3
BITMAP
0000
0600
0300
0000
1FE0
3030
6018
6018
6018
3030
1FE0
0000
0000
0000
ENDCHAR
STARTCHAR char111
ENCODING 243
SWIDTH 923 0
DWIDTH 14 0
BBX 14 14 0 -3
BITMAP
0000
0180
0300
0000
1FE0
3030
6018
6018
6018
3030
1FE0
0000
0000
0000
ENDCHAR
STARTCHAR char111
ENCODING 244
SWIDTH 923 0
DWIDTH 14 0
BBX 14 14 0 -3
BITMAP
0000
0300
0480
0000
1FE0
3030
6018
6018
6018
3030
1FE0
0000
0000
0000
ENDCHAR
STARTCHAR char111
ENCODING 245
SWIDTH 923 0
DWIDTH 14 0
BBX 14 14 0 -3
BITMAP
0000
0660
1980
0000
1FE0
3030
6018
6018
6018
3030
1FE0
0000
0000
0000
ENDCHAR
STARTCHAR char111
ENCODING 246
SWIDTH 923 0
DWIDTH 14 0
BBX 14 14 0 -3
BITMAP
0000
0CC0
0CC0
0000
1FE0
3030
6018
6018
6018
3030
1FE0
0000
0000
0000
ENDCHAR
STARTCHAR item_skeleton, fired_burst
ENCODING 247
SWIDTH 923 0
DWIDTH 14 0
BBX 14 14 0 -3
BITMAP
0000
0000
0000
0300
0300
0000
1FE0
0000
0300
0300
0000
0000
0000
0000
ENDCHAR
STARTCHAR char111
ENCODING 248
SWIDTH 923 0
DWIDTH 14 0
BBX 14 14 0 -3
BITMAP
0000
0000
0000
0000
1FE8
3030
60D8
6318
6C18
3030
5FE0
0000
0000
0000
ENDCHAR
STARTCHAR char117
ENCODING 249
SWIDTH 923 0
DWIDTH 14 0
BBX 14 14 0 -3
BITMAP
0000
0600
0300
0180
3018
3018
3018
3018
3018
1838
0FD8
0000
0000
0000
ENDCHAR
STARTCHAR char117
ENCODING 250
SWIDTH 923 0
DWIDTH 14 0
BBX 14 14 0 -3
BITMAP
0000
00C0
0180
0300
3018
3018
3018
3018
3018
1838
0FD8
0000
0000
0000
ENDCHAR
STARTCHAR char117
ENCODING 251
SWIDTH 923 0
DWIDTH 14 0
BBX 14 14 0 -3
BITMAP
0000
0100
0380
06C0
3018
3018
3018
3018
3018
1838
0FD8
0000
0000
0000
ENDCHAR
STARTCHAR char117
ENCODING 252
SWIDTH 923 0
DWIDTH 14 0
BBX 14 14 0 -3
BITMAP
0000
06C0
06C0
0000
3018
3018
3018
3018
3018
1838
0FD8
0000
0000
0000
ENDCHAR
STARTCHAR char121
ENCODING 253
SWIDTH 923 0
DWIDTH 14 0
BBX 14 14 0 -3
BITMAP
0000
00C0
0180
0300
3018
3018
3018
3018
3018
1838
0FD8
0018
1830
0FE0
ENDCHAR
STARTCHAR char254
ENCODING 254
SWIDTH 923 0
DWIDTH 14 0
BBX 14 14 0 -3
BITMAP
0000
3000
3000
3000
37C0
3860
3030
3018
3030
3860
37C0
3000
3000
3000
ENDCHAR
STARTCHAR char121
ENCODING 255
SWIDTH 923 0
DWIDTH 14 0
BBX 14 14 0 -3
BITMAP
0000
06C0
06C0
0000
3018
3018
3018
3018
3018
1838
0FD8
0018
1830
0FE0
ENDCHAR
STARTCHAR char97
ENCODING 257
SWIDTH 923 0
DWIDTH 14 0
BBX 14 14 0 -3
BITMAP
0000
0000
1FF0
0000
0FF0
1818
0018
1FF8
3018
3018
1FE8
0000
0000
0000
ENDCHAR
STARTCHAR char105
ENCODING 299
SWIDTH 923 0
DWIDTH 14 0
BBX 14 14 0 -3
BITMAP
0000
0000
0FC0
0000
0700
0300
0300
0300
0300
0300
1FE0
0000
0000
0000
ENDCHAR
STARTCHAR char108
ENCODING 322
SWIDTH 923 0
DWIDTH 14 0
BBX 14 14 0 -3
BITMAP
0000
0F00
0300
0300
0360
0380
0700
1B00
0300
0300
1FE0
0000
0000
0000
ENDCHAR
STARTCHAR char111
ENCODING 333
SWIDTH 923 0
DWIDTH 14 0
BBX 14 14 0 -3
BITMAP
0000
0000
3FF0
0000
1FE0
3030
6018
6018
6018
3030
1FE0
0000
0000
0000
ENDCHAR
STARTCHAR char102
ENCODING 383
SWIDTH 923 0
DWIDTH 14 0
BBX 14 14 0 -3
BITMAP
0000
0380
06C0
0600
0600
0E00
0600
0600
0600
0600
0600
0000
0000
0000
ENDCHAR
STARTCHAR char28
ENCODING 960
SWIDTH 923 0
DWIDTH 14 0
BBX 14 14 0 -3
BITMAP
0000
0000
0000
0000
7FF8
1860
1860
1860
1860
1860
1860
0000
0000
0000
ENDCHAR
STARTCHAR item_rune
ENCODING 966
SWIDTH 923 0
DWIDTH 14 0
BBX 14 14 0 -3
BITMAP
0000
0000
0000
0000
1DE0
33B0
6318
6318
6318
3330
1FE0
0300
0300
0300
ENDCHAR
STARTCHAR char8208
ENCODING 8208
SWIDTH 923 0
DWIDTH 14 0
BBX 14 14 0 -3
BITMAP
0000
0000
0000
0000
0000
0000
0FC0
0000
0000
0000
0000
0000
0000
0000
ENDCHAR
STARTCHAR char8209
ENCODING 8209
SWIDTH 923 0
DWIDTH 14 0
BBX 14 14 0 -3
BITMAP
0000
0000
0000
0000
0000
0000
0FC0
0000
0000
0000
0000
0000
0000
0000
ENDCHAR
STARTCHAR char8210
ENCODING 8210
SWIDTH 923 0
DWIDTH 14 0
BBX 14 14 0 -3
BITMAP
0000
0000
0000
0000
0000
0000
1FE0
0000
0000
0000
0000
0000
0000
0000
ENDCHAR
STARTCHAR char8211
ENCODING 8211
SWIDTH 923 0
DWIDTH 14 0
BBX 14 14 0 -3
BITMAP
0000
0000
0000
0000
0000
0000
3FF0
0000
0000
0000
0000
0000
0000
0000
ENDCHAR
STARTCHAR char8212
ENCODING 8212
SWIDTH 923 0
DWIDTH 14 0
BBX 14 14 0 -3
BITMAP
0000
0000
0000
0000
0000
0000
7FF8
0000
0000
0000
0000
0000
0000
0000
ENDCHAR
STARTCHAR char8213
ENCODING 8213
SWIDTH 923 0
DWIDTH 14 0
BBX 14 14 0 -3
BITMAP
0000
0000
0000
0000
0000
0000
FFFC
0000
0000
0000
0000
0000
0000
0000
ENDCHAR
STARTCHAR char8216
ENCODING 8216
SWIDTH 923 0
DWIDTH 14 0
BBX 14 14 0 -3
BITMAP
0180
0300
0380
0380
0000
0000
0000
0000
0000
0000
0000
0000
0000
0000
ENDCHAR
STARTCHAR char8217
ENCODING 8217
SWIDTH 923 0
DWIDTH 14 0
BBX 14 14 0 -3
BITMAP
0700
0700
0300
0600
0000
0000
0000
0000
0000
0000
0000
0000
0000
0000
ENDCHAR
STARTCHAR char8220
ENCODING 8220
SWIDTH 923 0
DWIDTH 14 0
BBX 14 14 0 -3
BITMAP
0660
0CC0
0EE0
0EE0
0000
0000
0000
0000
0000
0000
0000
0000
0000
0000
ENDCHAR
STARTCHAR char8221
ENCODING 8221
SWIDTH 923 0
DWIDTH 14 0
BBX 14 14 0 -3
BITMAP
1DC0
1DC0
0CC0
1980
0000
0000
0000
0000
0000
0000
0000
0000
0000
0000
ENDCHAR
STARTCHAR item_corpse
ENCODING 8224
SWIDTH 923 0
DWIDTH 14 0
BBX 14 14 0 -3
BITMAP
0000
0000
0300
0300
0300
1FE0
1FE0
0300
0300
0300
0300
0300
0300
0000
ENDCHAR
STARTCHAR char1
ENCODING 8226
SWIDTH 923 0
DWIDTH 14 0
BBX 14 14 0 -3
BITMAP
0000
0000
0000
0000
0700
0F80
0F80
0F80
0700
0000
0000
0000
0000
0000
ENDCHAR
STARTCHAR item_missile
ENCODING 8227
SWIDTH 923 0
DWIDTH 14 0
BBX 14 14 0 -3
BITMAP
0000
0000
0800
0C00
3E00
1E00
0F00
0380
01C0
00C0
0020
0010
0000
0000
ENDCHAR
STARTCHAR char133
ENCODING 8230
SWIDTH 923 0
DWIDTH 14 0
BBX 14 14 0 -3
BITMAP
0000
0000
0000
0000
0000
0000
0000
0000
0000
3330
3330
0000
0000
0000
ENDCHAR
STARTCHAR char8242
ENCODING 8242
SWIDTH 923 0
DWIDTH 14 0
BBX 14 14 0 -3
BITMAP
0180
0300
0600
0400
0000
0000
0000
0000
0000
0000
0000
0000
0000
0000
ENDCHAR
STARTCHAR char8243
ENCODING 8243
SWIDTH 923 0
DWIDTH 14 0
BBX 14 14 0 -3
BITMAP
0660
0CC0
1980
1100
0000
0000
0000
0000
0000
0000
0000
0000
0000
0000
ENDCHAR
STARTCHAR char8244
ENCODING 8244
SWIDTH 923 0
DWIDTH 14 0
BBX 14 14 0 -3
BITMAP
0DB0
1B60
36C0
2480
0000
0000
0000
0000
0000
0000
0000
0000
0000
0000
ENDCHAR
STARTCHAR char8242
ENCODING 8245
SWIDTH 923 0
DWIDTH 14 0
BBX 14 14 0 -3
BITMAP
0600
0300
0180
0080
0000
0000
0000
0000
0000
0000
0000
0000
0000
0000
ENDCHAR
STARTCHAR char8243
ENCODING 8246
SWIDTH 923 0
DWIDTH 14 0
BBX 14 14 0 -3
BITMAP
1980
0CC0
0660
0220
0000
0000
0000
0000
0000
0000
0000
0000
0000
0000
ENDCHAR
STARTCHAR char8244
ENCODING 8247
SWIDTH 923 0
DWIDTH 14 0
BBX 14 14 0 -3
BITMAP
36C0
1B60
0DB0
0490
0000
0000
0000
0000
0000
0000
0000
0000
0000
0000
ENDCHAR
STARTCHAR char8592
ENCODING 8592
SWIDTH 923 0
DWIDTH 14 0
BBX 14 14 0 -3
BITMAP
0000
0000
0000
0C00
1800
3000
7FF8
7FF8
3000
1800
0C00
0000
0000
0000
ENDCHAR
STARTCHAR char8593
ENCODING 8593
SWIDTH 923 0
DWIDTH 14 0
BBX 14 14 0 -3
BITMAP
0000
0300
0780
0FC0
1B60
1320
0300
0300
0300
0300
0300
0300
0300
0000
ENDCHAR
STARTCHAR char8594
ENCODING 8594
SWIDTH 923 0
DWIDTH 14 0
BBX 14 14 0 -3
BITMAP
0000
0000
0000
00C0
0060
0030
7FF8
7FF8
0030
0060
00C0
0000
0000
0000
ENDCHAR
STARTCHAR char8595
ENCODING 8595
SWIDTH 923 0
DWIDTH 14 0
BBX 14 14 0 -3
BITMAP
0000
0300
0300
0300
0300
0300
0300
0300
1320
1B60
0FC0
0780
0300
0000
ENDCHAR
STARTCHAR stairs_up
ENCODING 8599
SWIDTH 923 0
DWIDTH 14 0
BBX 14 14 0 -3
BITMAP
0000
0000
0050
0068
0050
03E0
03C0
0380
1F00
1E00
1C00
F800
0000
0000
ENDCHAR
STARTCHAR stairs_down
ENCODING 8600
SWIDTH 923 0
DWIDTH 14 0
BBX 14 14 0 -3
BITMAP
0000
F800
7800
3800
1F00
0F00
0700
03E0
01C0
00E0
0050
0028
0010
0000
ENDCHAR
STARTCHAR item_detected
ENCODING 8710
SWIDTH 923 0
DWIDTH 14 0
BBX 14 14 0 -3
BITMAP
0000
0300
0780
0780
0CC0
0CC0
1860
1860
3030
3030
7FF8
0000
0000
0000
ENDCHAR
STARTCHAR char8734
ENCODING 8734
SWIDTH 923 0
DWIDTH 14 0
BBX 14 14 0 -3
BITMAP
0000
0000
0000
0000
1CE0
37B0
6318
6318
37B0
1CE0
0000
0000
0000
0000
ENDCHAR
STARTCHAR arch
ENCODING 8745
SWIDTH 923 0
DWIDTH 14 0
BBX 14 14 0 -3
BITMAP
0000
0780
0CC0
1860
1860
3030
3030
3030
3030
3030
3030
0000
0000
0000
ENDCHAR
STARTCHAR char8746
ENCODING 8746
SWIDTH 923 0
DWIDTH 14 0
BBX 14 14 0 -3
BITMAP
0000
3030
3030
3030
3030
3030
3030
1860
1860
0CC0
0780
0000
0000
0000
ENDCHAR
STARTCHAR wavy
ENCODING 8776
SWIDTH 923 0
DWIDTH 14 0
BBX 14 14 0 -3
BITMAP
0000
0000
0000
60C0
9120
1224
0C18
60C0
9120
1224
0C18
0000
0000
0000
ENDCHAR
STARTCHAR char29
ENCODING 8800
SWIDTH 923 0
DWIDTH 14 0
BBX 14 14 0 -3
BITMAP
0000
0000
0060
00C0
3FF0
0180
0300
0600
3FF0
0C00
1800
0000
0000
0000
ENDCHAR
STARTCHAR char26
ENCODING 8804
SWIDTH 923 0
DWIDTH 14 0
BBX 14 14 0 -3
BITMAP
0000
0000
0038
01C0
0E00
7000
0E00
01C0
0038
0000
7FF8
0000
0000
0000
ENDCHAR
STARTCHAR char27
ENCODING 8805
SWIDTH 923 0
DWIDTH 14 0
BBX 14 14 0 -3
BITMAP
0000
0000
7000
0E00
01C0
0038
01C0
0E00
7000
0000
7FF8
0000
0000
0000
ENDCHAR
STARTCHAR draw_left
ENCODING 8826
SWIDTH 923 0
DWIDTH 14 0
BBX 14 14 0 -3
BITMAP
000C
001C
0038
0070
00E0
00C0
01C0
01C0
00C0
00E0
0070
0038
001C
000C
ENDCHAR
STARTCHAR draw_right
ENCODING 8827
SWIDTH 923 0
DWIDTH 14 0
BBX 14 14 0 -3
BITMAP
C000
E000
7000
3800
1C00
0C00
0E00
0E00
0C00
1C00
3800
7000
E000
C000
ENDCHAR
STARTCHAR draw_down
ENCODING 8910
SWIDTH 923 0
DWIDTH 14 0
BBX 14 14 0 -3
BITMAP
C00C
E01C
7038
3870
1FE0
0FC0
0300
0000
0000
0000
0000
0000
0000
0000
ENDCHAR
STARTCHAR draw_up
ENCODING 8911
SWIDTH 923 0
DWIDTH 14 0
BBX 14 14 0 -3
BITMAP
0000
0000
0000
0000
0000
0000
0000
0300
0FC0
1FE0
3870
7038
E01C
C00C
ENDCHAR
STARTCHAR item_detected
ENCODING 8962
SWIDTH 923 0
DWIDTH 14 0
BBX 14 14 0 -3
BITMAP
0000
0300
0480
0840
1020
2010
2010
2010
2010
2010
3FF0
0000
0000
0000
ENDCHAR
STARTCHAR fountain
ENCODING 8992
SWIDTH 923 0
DWIDTH 14 0
BBX 14 14 0 -3
BITMAP
0000
0000
03C0
0660
0600
0600
0600
0600
0600
0600
0600
0600
0600
0600
ENDCHAR
STARTCHAR char8993
ENCODING 8993
SWIDTH 923 0
DWIDTH 14 0
BBX 14 14 0 -3
BITMAP
0300
0300
0300
0300
0300
0300
0300
0300
0300
3300
3300
1E00
0000
0000
ENDCHAR
STARTCHAR char16
ENCODING 9146
SWIDTH 923 0
DWIDTH 14 0
BBX 14 14 0 -3
BITMAP
FFFC
0000
0000
0000
0000
0000
0000
0000
0000
0000
0000
0000
0000
0000
ENDCHAR
STARTCHAR char17
ENCODING 9147
SWIDTH 923 0
DWIDTH 14 0
BBX 14 14 0 -3
BITMAP
0000
0000
0000
FFFC
0000
0000
0000
0000
0000
0000
0000
0000
0000
0000
ENDCHAR
STARTCHAR char19
ENCODING 9148
SWIDTH 923 0
DWIDTH 14 0
BBX 14 14 0 -3
BITMAP
0000
0000
0000
0000
0000
0000
0000
0000
0000
0000
FFFC
0000
0000
0000
ENDCHAR
STARTCHAR char20
ENCODING 9149
SWIDTH 923 0
DWIDTH 14 0
BBX 14 14 0 -3
BITMAP
0000
0000
0000
0000
0000
0000
0000
0000
0000
0000
0000
0000
0000
FFFC
ENDCHAR
STARTCHAR char3
ENCODING 9225
SWIDTH 923 0
DWIDTH 14 0
BBX 14 14 0 -3
BITMAP
0000
6600
6600
7E00
6600
6600
01F8
0060
0060
0060
0060
0000
0000
0000
ENDCHAR
STARTCHAR char6
ENCODING 9226
SWIDTH 923 0
DWIDTH 14 0
BBX 14 14 0 -3
BITMAP
0000
6000
6000
6000
6000
61F0
7D80
01E0
0180
0180
0180
0000
0000
0000
ENDCHAR
STARTCHAR char10
ENCODING 9227
SWIDTH 923 0
DWIDTH 14 0
BBX 14 14 0 -3
BITMAP
0000
6300
6300
6300
3600
1FF0
08C0
00C0
00C0
00C0
00C0
0000
0000
0000
ENDCHAR
STARTCHAR char4
ENCODING 9228
SWIDTH 923 0
DWIDTH 14 0
BBX 14 14 0 -3
BITMAP
0000
7C00
6000
7800
6000
61F0
6180
01E0
0180
0180
0180
0000
0000
0000
ENDCHAR
STARTCHAR char5
ENCODING 9229
SWIDTH 923 0
DWIDTH 14 0
BBX 14 14 0 -3
BITMAP
0000
3800
6400
6000
6000
65E0
3990
0190
01E0
01B0
0190
0000
0000
0000
ENDCHAR
STARTCHAR char9
ENCODING 9252
SWIDTH 923 0
DWIDTH 14 0
BBX 14 14 0 -3
BITMAP
0000
6300
7300
7B00
6F00
67C0
63C0
00C0
00C0
00C0
00F8
0000
0000
0000
ENDCHAR
STARTCHAR char18
ENCODING 9472
SWIDTH 923 0
DWIDTH 14 0
BBX 14 14 0 -3
BITMAP
0000
0000
0000
0000
0000
0000
FFFC
0000
0000
0000
0000
0000
0000
0000
ENDCHAR
STARTCHAR char9474
ENCODING 9474
SWIDTH 923 0
DWIDTH 14 0
BBX 14 14 0 -3
BITMAP
0200
0200
0200
0200
0200
0200
0200
0200
0200
0200
0200
0200
0200
0200
ENDCHAR
STARTCHAR draw_horiz
ENCODING 9476
SWIDTH 923 0
DWIDTH 14 0
BBX 14 14 0 -3
BITMAP
0000
0000
0000
0000
0000
30C0
F9F0
CF3C
060C
0000
0000
0000
0000
0000
ENDCHAR
STARTCHAR draw_vert
ENCODING 9478
SWIDTH 923 0
DWIDTH 14 0
BBX 14 14 0 -3
BITMAP
0300
0300
0180
0180
0300
0600
0600
0300
0180
0180
0300
0300
0600
0600
ENDCHAR
STARTCHAR char13
ENCODING 9484
SWIDTH 923 0
DWIDTH 14 0
BBX 14 14 0 -3
BITMAP
0000
0000
0000
0000
0000
0000
03FC
0200
0200
0200
0200
0200
0200
0200
ENDCHAR
STARTCHAR char12
ENCODING 9488
SWIDTH 923 0
DWIDTH 14 0
BBX 14 14 0 -3
BITMAP
0000
0000
0000
0000
0000
0000
FE00
0200
0200
0200
0200
0200
0200
0200
ENDCHAR
STARTCHAR char14
ENCODING 9492
SWIDTH 923 0
DWIDTH 14 0
BBX 14 14 0 -3
BITMAP
0200
0200
0200
0200
0200
0200
03FC
0000
0000
0000
0000
0000
0000
0000
ENDCHAR
STARTCHAR char11
ENCODING 9496
SWIDTH 923 0
DWIDTH 14 0
BBX 14 14 0 -3
BITMAP
0200
0200
0200
0200
0200
0200
FE00
0000
0000
0000
0000
0000
0000
0000
ENDCHAR
STARTCHAR char9500
ENCODING 9500
SWIDTH 923 0
DWIDTH 14 0
BBX 14 14 0 -3
BITMAP
0200
0200
0200
0200
0200
0200
03FC
0200
0200
0200
0200
0200
0200
0200
ENDCHAR
STARTCHAR char9508
ENCODING 9508
SWIDTH 923 0
DWIDTH 14 0
BBX 14 14 0 -3
BITMAP
0200
0200
0200
0200
0200
0200
FE00
0200
0200
0200
0200
0200
0200
0200
ENDCHAR
STARTCHAR char9516
ENCODING 9516
SWIDTH 923 0
DWIDTH 14 0
BBX 14 14 0 -3
BITMAP
0000
0000
0000
0000
0000
0000
FFFC
0200
0200
0200
0200
0200
0200
0200
ENDCHAR
STARTCHAR char9524
ENCODING 9524
SWIDTH 923 0
DWIDTH 14 0
BBX 14 14 0 -3
BITMAP
0200
0200
0200
0200
0200
0200
FFFC
0000
0000
0000
0000
0000
0000
0000
ENDCHAR
STARTCHAR char15
ENCODING 9532
SWIDTH 923 0
DWIDTH 14 0
BBX 14 14 0 -3
BITMAP
0200
0200
0200
0200
0200
0200
FFFC
0200
0200
0200
0200
0200
0200
0200
ENDCHAR
STARTCHAR frame_horiz
ENCODING 9552
SWIDTH 923 0
DWIDTH 14 0
BBX 14 14 0 -3
BITMAP
0000
0000
0000
0000
0000
FFFC
0000
FFFC
0000
0000
0000
0000
0000
0000
ENDCHAR
STARTCHAR frame_vert
ENCODING 9553
SWIDTH 923 0
DWIDTH 14 0
BBX 14 14 0 -3
BITMAP
0500
0500
0500
0500
0500
0500
0500
0500
0500
0500
0500
0500
0500
0500
ENDCHAR
STARTCHAR frame_top_left
ENCODING 9556
SWIDTH 923 0
DWIDTH 14 0
BBX 14 14 0 -3
BITMAP
0000
0000
0000
0000
0000
07FC
0400
05FC
0500
0500
0500
0500
0500
0500
ENDCHAR
STARTCHAR frame_top_right
ENCODING 9559
SWIDTH 923 0
DWIDTH 14 0
BBX 14 14 0 -3
BITMAP
0000
0000
0000
0000
0000
FF00
0100
FD00
0500
0500
0500
0500
0500
0500
ENDCHAR
STARTCHAR frame_bottom_left
ENCODING 9562
SWIDTH 923 0
DWIDTH 14 0
BBX 14 14 0 -3
BITMAP
0500
0500
0500
0500
0500
05FC
0400
07FC
0000
0000
0000
0000
0000
0000
ENDCHAR
STARTCHAR frame_bottom_right
ENCODING 9565
SWIDTH 923 0
DWIDTH 14 0
BBX 14 14 0 -3
BITMAP
0500
0500
0500
0500
0500
FD00
0100
FF00
0000
0000
0000
0000
0000
0000
ENDCHAR
STARTCHAR draw_top_left
ENCODING 9581
SWIDTH 923 0
DWIDTH 14 0
BBX 14 14 0 -3
BITMAP
0000
0000
0000
0000
0000
0000
001C
007C
00E0
0180
0180
0300
0300
0300
ENDCHAR
STARTCHAR draw_top_right
ENCODING 9582
SWIDTH 923 0
DWIDTH 14 0
BBX 14 14 0 -3
BITMAP
0000
0000
0000
0000
0000
0000
E000
F800
1C00
0600
0600
0300
0300
0300
ENDCHAR
STARTCHAR draw_bottom_right
ENCODING 9583
SWIDTH 923 0
DWIDTH 14 0
BBX 14 14 0 -3
BITMAP
0300
0300
0300
0600
0600
1C00
F800
E000
0000
0000
0000
0000
0000
0000
ENDCHAR
STARTCHAR draw_bottom_left
ENCODING 9584
SWIDTH 923 0
DWIDTH 14 0
BBX 14 14 0 -3
BITMAP
0300
0300
0300
0180
0180
00E0
007C
001C
0000
0000
0000
0000
0000
0000
ENDCHAR
STARTCHAR draw_slash
ENCODING 9585
SWIDTH 923 0
DWIDTH 14 0
BBX 14 14 0 -3
BITMAP
000C
003C
0030
0060
01E0
0180
0300
0300
0600
1E00
1800
3000
F000
C000
ENDCHAR
STARTCHAR draw_backslash
ENCODING 9586
SWIDTH 923 0
DWIDTH 14 0
BBX 14 14 0 -3
BITMAP
C000
C000
6000
7800
1800
0C00
0F00
03C0
00C0
0060
0078
0018
000C
000C
ENDCHAR
STARTCHAR char9608
ENCODING 9608
SWIDTH 923 0
DWIDTH 14 0
BBX 14 14 0 -3
BITMAP
FFFC
FFFC
FFFC
FFFC
FFFC
FFFC
FFFC
FFFC
FFFC
FFFC
FFFC
FFFC
FFFC
FFFC
ENDCHAR
STARTCHAR wall_magic
ENCODING 9617
SWIDTH 923 0
DWIDTH 14 0
BBX 14 14 0 -3
BITMAP
9120
0408
2040
8910
1020
4488
0000
9120
0408
2040
8910
1020
4488
0000
ENDCHAR
STARTCHAR wall
ENCODING 9618
SWIDTH 923 0
DWIDTH 14 0
BBX 14 14 0 -3
BITMAP
5554
AAA8
5554
AAA8
5554
AAA8
5554
AAA8
5554
AAA8
5554
AAA8
5554
AAA8
ENDCHAR
STARTCHAR permawall
ENCODING 9619
SWIDTH 923 0
DWIDTH 14 0
BBX 14 14 0 -3
BITMAP
6EDC
FBF4
DFBC
76EC
EFDC
BB74
FFFC
6EDC
FBF4
DFBC
76EC
EFDC
BB74
FFFC
ENDCHAR
STARTCHAR grate
ENCODING 9638
SWIDTH 923 0
DWIDTH 14 0
BBX 14 14 0 -3
BITMAP
2490
2490
FFFC
2490
2490
FFFC
2490
2490
FFFC
2490
2490
FFFC
2490
2490
ENDCHAR
STARTCHAR item_food
ENCODING 9661
SWIDTH 923 0
DWIDTH 14 0
BBX 14 14 0 -3
BITMAP
0000
07C0
07F8
06F8
0430
0460
0CC0
0980
0B00
1E00
1C00
1800
1000
0000
ENDCHAR
STARTCHAR item_detected
ENCODING 9674
SWIDTH 923 0
DWIDTH 14 0
BBX 14 14 0 -3
BITMAP
0000
0300
0780
0480
0CC0
0840
1860
0840
0CC0
0480
0780
0300
0000
0000
ENDCHAR
STARTCHAR cloud_fading
ENCODING 9675
SWIDTH 923 0
DWIDTH 14 0
BBX 14 14 0 -3
BITMAP
0000
0000
0000
0000
0040
0520
1250
2100
0008
22A0
0900
0000
0000
0000
ENDCHAR
STARTCHAR cloud_terminal
ENCODING 9676
SWIDTH 923 0
DWIDTH 14 0
BBX 14 14 0 -3
BITMAP
0000
0000
0000
0000
0000
0000
1000
2420
2880
0110
00A0
0000
0000
0000
ENDCHAR
STARTCHAR item_rune
ENCODING 9677
SWIDTH 923 0
DWIDTH 14 0
BBX 14 14 0 -3
BITMAP
0000
0000
0780
1CE0
30B0
2110
6118
4208
6218
3430
1FE0
0000
0000
0000
ENDCHAR
STARTCHAR item_orb
ENCODING 9678
SWIDTH 923 0
DWIDTH 14 0
BBX 14 14 0 -3
BITMAP
0000
0780
1FE0
3870
3030
6318
6798
6318
3030
3870
1FE0
0780
0000
0000
ENDCHAR
STARTCHAR floor_magic
ENCODING 9702
SWIDTH 923 0
DWIDTH 14 0
BBX 14 14 0 -3
BITMAP
0000
0000
0000
0000
0780
0CC0
0840
0840
0CC0
0780
0000
0000
0000
0000
ENDCHAR
STARTCHAR door_open
ENCODING 9723
SWIDTH 923 0
DWIDTH 14 0
BBX 14 14 0 -3
BITMAP
0000
0000
0000
1FE0
1020
1020
1020
1020
1020
1020
1FE0
0000
0000
0000
ENDCHAR
STARTCHAR door_closed
ENCODING 9724
SWIDTH 923 0
DWIDTH 14 0
BBX 14 14 0 -3
BITMAP
0000
0000
0000
0000
0FC0
0FC0
0FC0
0FC0
0FC0
0FC0
0000
0000
0000
0000
ENDCHAR
STARTCHAR fired_burst
ENCODING 9728
SWIDTH 923 0
DWIDTH 14 0
BBX 14 14 0 -3
BITMAP
0000
0100
1100
0810
0320
0780
6FC0
0FD8
0780
1300
2040
0220
0200
0000
ENDCHAR
STARTCHAR cloud
ENCODING 9729
SWIDTH 923 0
DWIDTH 14 0
BBX 14 14 0 -3
BITMAP
0000
0000
00C0
1D20
2230
2148
4008
4008
2208
1130
11C0
0E00
0000
0000
ENDCHAR
STARTCHAR statue
ENCODING 9731
SWIDTH 923 0
DWIDTH 14 0
BBX 14 14 0 -3
BITMAP
0000
0300
0780
0300
0780
0780
0780
0780
0300
3FF0
7FF8
0000
0000
0000
ENDCHAR
STARTCHAR fired_missile
ENCODING 9732
SWIDTH 923 0
DWIDTH 14 0
BBX 14 14 0 -3
BITMAP
0000
0400
0480
2500
1F00
0FE0
7F00
0F80
0A40
1200
0200
0000
0000
0000
ENDCHAR
STARTCHAR item_skeleton
ENCODING 9760
SWIDTH 923 0
DWIDTH 14 0
BBX 14 14 0 -3
BITMAP
0000
0000
1030
3878
7C78
3FE0
07C0
0780
1FC0
7CF8
7878
1830
0000
0000
ENDCHAR
STARTCHAR item_wand
ENCODING 9764
SWIDTH 923 0
DWIDTH 14 0
BBX 14 14 0 -3
BITMAP
0090
0000
0264
00F0
00F0
01E4
0380
0710
0E00
1C00
3800
7000
6000
0000
ENDCHAR
STARTCHAR item_rod
ENCODING 9765
SWIDTH 923 0
DWIDTH 14 0
BBX 14 14 0 -3
BITMAP
0000
3800
7C00
6C00
6C00
0E00
0700
0380
01C0
00E0
0070
0038
0018
0000
ENDCHAR
STARTCHAR item_miscellany
ENCODING 9773
SWIDTH 923 0
DWIDTH 14 0
BBX 14 14 0 -3
BITMAP
0000
0000
0000
07F8
0818
1028
3FD8
2028
3FD0
2020
3FC0
0000
0000
0000
ENDCHAR
STARTCHAR cloud_weak
ENCODING 9788
SWIDTH 923 0
DWIDTH 14 0
BBX 14 14 0 -3
BITMAP
0000
0000
0000
0000
00C0
0D20
1230
3148
4008
22F0
1D00
0000
0000
0000
ENDCHAR
STARTCHAR item_ring
ENCODING 9793
SWIDTH 923 0
DWIDTH 14 0
BBX 14 14 0 -3
BITMAP
0000
0000
0000
0000
0FC0
1FE0
3870
3030
3870
1FE0
0FC0
0000
0000
0000
ENDCHAR
STARTCHAR item_amulet
ENCODING 9908
SWIDTH 923 0
DWIDTH 14 0
BBX 14 14 0 -3
BITMAP
0000
1010
1010
1010
0820
0820
0440
0380
0100
0380
06C0
0380
0100
0000
ENDCHAR
STARTCHAR wavy
ENCODING 9810
SWIDTH 923 0
DWIDTH 14 0
BBX 14 14 0 -3
BITMAP
0000
0000
0000
60C0
9120
1224
0C18
60C0
9120
1224
0C18
0000
0000
0000
ENDCHAR
STARTCHAR item_armour
ENCODING 9813
SWIDTH 923 0
DWIDTH 14 0
BBX 14 14 0 -3
BITMAP
0000
7CF8
77B8
1020
11F8
1108
1908
0908
0890
1FE0
3030
2010
3FF0
0000
ENDCHAR
STARTCHAR tree
ENCODING 9827
SWIDTH 923 0
DWIDTH 14 0
BBX 14 14 0 -3
BITMAP
0000
0700
0F80
0F80
0F80
3FE0
7FF0
7FF0
7FF0
3760
0700
0700
0F80
0000
ENDCHAR
STARTCHAR char9830
ENCODING 9830
SWIDTH 923 0
DWIDTH 14 0
BBX 14 14 0 -3
BITMAP
0000
0200
0700
0F80
1FC0
3FE0
7FF0
7FF0
3FE0
1FC0
0F80
0700
0200
0000
ENDCHAR
STARTCHAR fountain
ENCODING 9832
SWIDTH 923 0
DWIDTH 14 0
BBX 14 14 0 -3
BITMAP
0000
0000
0840
14A0
0300
2310
0300
0FC0
0780
0FC0
3FF0
0000
0000
0000
ENDCHAR
STARTCHAR item_scroll
ENCODING 9852
SWIDTH 923 0
DWIDTH 14 0
BBX 14 14 0 -3
BITMAP
0000
1FE0
2070
2F40
2040
3760
1020
17A0
1830
0BD0
0810
3FF0
1FE0
0000
ENDCHAR
STARTCHAR item_book
ENCODING 9854
SWIDTH 923 0
DWIDTH 14 0
BBX 14 14 0 -3
BITMAP
0000
0000
3030
7CF8
6798
6318
6318
6318
7338
7FF8
7FF8
0300
0000
0000
ENDCHAR
STARTCHAR item_weapon
ENCODING 9876
SWIDTH 923 0
DWIDTH 14 0
BBX 14 14 0 -3
BITMAP
0000
0000
0030
0070
00E0
01C0
0380
1700
1E00
1C00
3E00
3000
0000
0000
ENDCHAR
STARTCHAR item_staff
ENCODING 9877
SWIDTH 923 0
DWIDTH 14 0
BBX 14 14 0 -3
BITMAP
0000
0000
0300
0780
0780
0300
0300
0300
0300
0300
0300
0300
0000
0000
ENDCHAR
STARTCHAR item_potion
ENCODING 9879
SWIDTH 923 0
DWIDTH 14 0
BBX 14 14 0 -3
BITMAP
0000
0780
0300
0300
0780
0FC0
1FE0
1FE0
1FE0
0FC0
0780
0000
0000
0000
ENDCHAR
STARTCHAR teleporter
ENCODING 9883
SWIDTH 923 0
DWIDTH 14 0
BBX 14 14 0 -3
BITMAP
0F80
7070
8008
7070
0F80
7070
8008
7070
0F80
7070
8008
7070
0F80
0000
ENDCHAR
STARTCHAR trap
ENCODING 9888
SWIDTH 923 0
DWIDTH 14 0
BBX 14 14 0 -3
BITMAP
0000
0000
0000
0000
0000
1FE0
1020
2490
2490
4B48
7FF8
0000
0000
0000
ENDCHAR
STARTCHAR fired_bolt
ENCODING 9735
SWIDTH 923 0
DWIDTH 14 0
BBX 14 14 0 -3
BITMAP
00C0
0180
0300
0400
0FC0
00C0
0180
0300
0400
0FC0
00C0
0180
0300
0400
ENDCHAR
STARTCHAR item_corpse
ENCODING 9904
SWIDTH 923 0
DWIDTH 14 0
BBX 14 14 0 -3
BITMAP
0000
0000
0200
0200
0F80
0200
0200
0200
0700
0F80
1FC0
1FC0
0000
0000
ENDCHAR
STARTCHAR transporter
ENCODING 9921
SWIDTH 923 0
DWIDTH 14 0
BBX 14 14 0 -3
BITMAP
0F80
7070
8008
7070
0F80
7070
8008
7070
0F80
7070
8008
7070
0F80
0000
ENDCHAR
STARTCHAR transporter_landing
ENCODING 9923
SWIDTH 923 0
DWIDTH 14 0
BBX 14 14 0 -3
BITMAP
0000
0000
0000
0000
0F80
7070
8F88
7070
8F88
7070
8F88
7070
0F80
0000
ENDCHAR
STARTCHAR altar
ENCODING 10014
SWIDTH 923 0
DWIDTH 14 0
BBX 14 14 0 -3
BITMAP
0000
0000
0000
0000
0000
1FE0
0840
0840
0840
3FF0
7FF8
0000
0000
0000
ENDCHAR
STARTCHAR explosion
ENCODING 10037
SWIDTH 923 0
DWIDTH 14 0
BBX 14 14 0 -3
BITMAP
0000
0A80
2220
1AC0
5FD0
0F80
7FF0
0F80
5FD0
1AC0
2220
0A80
0000
0000
ENDCHAR
STARTCHAR fired_zap
ENCODING 10039
SWIDTH 923 0
DWIDTH 14 0
BBX 14 14 0 -3
BITMAP
C304
419C
7310
1670
1F40
47E0
EFF4
BFDC
1F88
0BE0
39A0
2338
E608
830C
ENDCHAR
STARTCHAR invis_exposed
ENCODING 11822
SWIDTH 923 0
DWIDTH 14 0
BBX 14 14 0 -3
BITMAP
0000
0FC0
1860
3020
1800
0600
0300
0600
0000
0300
0180
0000
0000
0000
ENDCHAR
ENDFONT
